<?xml version="1.0" encoding="UTF-8" standalone="no"?>
<svg
   xmlns:dc="http://purl.org/dc/elements/1.1/"
   xmlns:cc="http://creativecommons.org/ns#"
   xmlns:rdf="http://www.w3.org/1999/02/22-rdf-syntax-ns#"
   xmlns:svg="http://www.w3.org/2000/svg"
   xmlns="http://www.w3.org/2000/svg"
   xmlns:sodipodi="http://sodipodi.sourceforge.net/DTD/sodipodi-0.dtd"
   xmlns:inkscape="http://www.inkscape.org/namespaces/inkscape"
   width="148.358mm"
   height="64.397003mm"
   viewBox="0 0 148.358 64.397003"
   version="1.1"
   id="svg8"
   inkscape:version="1.0.2-2 (e86c870879, 2021-01-15)"
   sodipodi:docname="logo.svg">
  <defs
     id="defs2">
    <rect
       x="-393.8512"
       y="74.083336"
       width="182.94048"
       height="91.470238"
       id="rect837" />
  </defs>
  <sodipodi:namedview
     id="base"
     pagecolor="#ffffff"
     bordercolor="#666666"
     borderopacity="1.0"
     inkscape:pageopacity="0.0"
     inkscape:pageshadow="2"
     inkscape:zoom="0.98994949"
     inkscape:cx="253.88464"
     inkscape:cy="49.758281"
     inkscape:document-units="mm"
     inkscape:current-layer="layer1"
     inkscape:document-rotation="0"
     showgrid="false"
     inkscape:object-paths="true"
     inkscape:snap-nodes="false"
     inkscape:snap-global="false"
     inkscape:window-width="1366"
     inkscape:window-height="697"
     inkscape:window-x="-8"
     inkscape:window-y="-8"
     inkscape:window-maximized="1" />
  <metadata
     id="metadata5">
    <rdf:RDF>
      <cc:Work
         rdf:about="">
        <dc:format>image/svg+xml</dc:format>
        <dc:type
           rdf:resource="http://purl.org/dc/dcmitype/StillImage" />
        <dc:title></dc:title>
      </cc:Work>
    </rdf:RDF>
  </metadata>
  <g
     inkscape:label="Layer 1"
     inkscape:groupmode="layer"
     id="layer1">
    <g
       id="g937"
       transform="translate(386.88435,-120.67943)">
      <path
         id="path850-1"
         style="color:#000000;font-style:normal;font-variant:normal;font-weight:bold;font-stretch:normal;font-size:10.5833px;line-height:1.25;font-family:'Darker Grotesque ExtraBold';-inkscape-font-specification:'Darker Grotesque ExtraBold, Bold';font-variant-ligatures:normal;font-variant-position:normal;font-variant-caps:normal;font-variant-numeric:normal;font-variant-alternates:normal;font-variant-east-asian:normal;font-feature-settings:normal;font-variation-settings:normal;text-indent:0;text-align:start;text-decoration:none;text-decoration-line:none;text-decoration-style:solid;text-decoration-color:#000000;letter-spacing:-0.329993px;word-spacing:normal;text-transform:none;writing-mode:lr-tb;direction:ltr;text-orientation:mixed;dominant-baseline:auto;baseline-shift:baseline;text-anchor:start;white-space:pre;shape-padding:0;shape-margin:0;inline-size:0;clip-rule:nonzero;display:inline;overflow:visible;visibility:visible;isolation:auto;mix-blend-mode:normal;color-interpolation:sRGB;color-interpolation-filters:linearRGB;solid-color:#000000;solid-opacity:1;vector-effect:none;fill:#000000;fill-opacity:1;fill-rule:nonzero;stroke:none;stroke-width:1;stroke-linecap:butt;stroke-linejoin:miter;stroke-miterlimit:4;stroke-dasharray:none;stroke-dashoffset:0;stroke-opacity:1;color-rendering:auto;image-rendering:auto;shape-rendering:auto;text-rendering:auto;enable-background:accumulate;stop-color:#000000"
         d="m -296.91209,120.67988 c -6.03379,0 -11.44767,1.28983 -16.23467,3.86746 -4.78692,2.50449 -8.58303,6.18983 -11.38071,11.04894 -2.79955,4.86231 -4.19687,10.75306 -4.19716,17.6661 -0.0734,6.98743 1.2869,12.843 4.08762,17.56017 2.79853,4.71321 6.59488,8.28798 11.38275,10.71873 v 0.002 h 0.003 c 4.78612,2.35626 10.12388,3.53312 16.00988,3.53312 h 0.0997 v -0.01 c 6.05835,-0.0129 11.22246,-1.1065 15.47244,-3.30471 4.27061,-2.20893 7.62434,-5.12057 10.05676,-8.73228 2.42996,-3.68179 2.61493,-7.05098 3.42461,-11.54142 l 0.0217,-0.11937 -1.68516,-0.7183 c 0.0428,-0.21267 0.0848,-0.42557 0.12351,-0.64027 l 0.0217,-0.11731 h -3.09904 c 0.0429,-0.21046 0.0841,-0.42189 0.12247,-0.63459 l 0.019,-0.11937 h -1.17615 v 0.20102 h 0.92604 c -0.0342,0.18524 -0.0714,0.36941 -0.10903,0.55294 h -0.81701 v 0.19947 h 0.77568 c -0.0397,0.1868 -0.0803,0.3731 -0.12351,0.55811 h -0.65217 v 0.20148 h 0.60307 c -0.17357,0.7185 -0.37547,1.42273 -0.60307,2.11408 v 0.15348 h -0.0511 c -0.70813,2.10747 -1.66833,4.08852 -2.88975,5.93918 h 0.003 c -1.94741,2.89158 -4.63325,5.22378 -8.0605,6.99647 -3.42281,1.77039 -7.58719,2.65823 -12.49794,2.65823 -4.73154,0 -9.01491,-0.94728 -12.85555,-2.83807 -3.83897,-1.94901 -6.87803,-4.80877 -9.12296,-8.58965 -2.24248,-3.77692 -3.3364,-8.47322 -3.27732,-14.09423 v -0.002 c 0,-5.56179 1.12363,-10.28894 3.36725,-14.1857 2.24525,-3.89961 5.28418,-6.84936 9.12294,-8.85734 h 0.003 c 3.83937,-2.06735 8.18102,-3.1014 13.0297,-3.10162 h 0.003 c 4.7916,1.9e-4 8.86751,0.85716 12.23076,2.56832 3.36724,1.71313 5.99056,4.01343 7.8786,6.90449 v 0.002 c 1.21378,1.80229 2.15921,3.72072 2.84271,5.75314 h 0.2186 c -0.69406,-2.07254 -1.65812,-4.02781 -2.89491,-5.86425 h 0.003 c -1.90786,-2.92145 -4.56226,-5.24579 -7.9566,-6.9727 -3.39775,-1.72871 -7.5061,-2.59157 -12.32225,-2.59157 -4.87778,0 -9.25666,1.04272 -13.12736,3.12694 -3.87054,2.02517 -6.93901,5.00466 -9.20099,8.93331 -2.26383,3.93184 -3.39434,8.69552 -3.39463,14.28336 -0.0594,5.64815 1.03965,10.3842 3.3047,14.19913 2.26279,3.81096 5.33363,6.70268 9.20514,8.66821 h 0.003 c 3.86982,1.90514 8.18517,2.85719 12.94339,2.85719 h 0.0992 v -0.01 c 4.88833,-0.0129 9.05846,-0.89432 12.49071,-2.6696 3.45295,-1.78599 6.16564,-4.14169 8.13284,-7.06262 h 0.003 c 1.67317,-2.53516 2.86988,-5.30898 3.59307,-8.31835 h 2.91195 c -0.77166,3.68874 -2.15921,7.06785 -4.18063,10.13064 -2.17913,3.23518 -5.18337,5.84325 -9.01753,7.8264 -3.83019,1.98111 -8.49101,2.97449 -13.98468,2.97449 -5.29275,0 -10.08378,-1.05896 -14.3805,-3.17396 h -0.003 c -4.29482,-2.18078 -7.69556,-5.38347 -10.20712,-9.61337 -2.50936,-4.22643 -3.73409,-9.48133 -3.668,-15.76958 0,-6.22201 1.25719,-11.51056 3.76772,-15.87087 2.51214,-4.36316 5.91386,-7.6632 10.20921,-9.90999 v -0.002 h 0.003 c 4.29546,-2.31295 9.15133,-3.47014 14.57534,-3.47059 h 0.003 c 5.35985,2.7e-4 9.91918,0.96011 13.68237,2.87476 3.76762,1.91682 6.70534,4.49145 8.81809,7.72666 v 0.002 c 2.0057,2.97814 3.3573,6.23936 4.07622,9.77718 h -2.88819 c -0.15438,-0.64301 -0.33668,-1.27399 -0.53951,-1.896 v 0.70228 c 0.1161,0.39423 0.22535,0.79122 0.32247,1.19372 h -0.32247 v 0.20103 h 0.37052 c 0.0472,0.20274 0.092,0.40649 0.13436,0.61133 h -0.50488 v 0.19947 h 0.54623 c 0.0401,0.20152 0.0787,0.40367 0.1142,0.6072 h -0.66043 v 0.19947 h 0.90951 l -0.0196,-0.11731 c -0.0392,-0.2311 -0.082,-0.46082 -0.12714,-0.68936 h 3.07063 l -0.0196,-0.11524 c -0.0395,-0.23299 -0.0822,-0.46491 -0.12714,-0.69556 l 2.75799,-0.66818 -0.0196,-0.11679 c -0.73623,-4.34361 -1.98628,-7.65385 -4.41574,-11.26184 l -0.003,-0.002 c -2.35884,-3.61116 -5.64113,-6.48537 -9.83816,-8.62067 -4.20132,-2.13754 -9.28182,-3.20548 -15.23989,-3.20548 z m 0,0.20153 h 0.003 c 5.9331,2.7e-4 10.98084,1.06185 15.1474,3.18172 4.17083,2.12196 7.42312,4.97267 9.7622,8.55452 2.39191,3.55158 3.61254,6.79805 4.35321,11.06806 l -2.54868,0.66817 c -0.72313,-3.57933 -2.09835,-6.8768 -4.12686,-9.8888 h 0.003 c -2.13259,-3.26561 -5.09984,-5.86427 -8.89455,-7.79487 -3.79806,-1.9324 -8.39187,-2.89647 -13.77693,-2.89647 -5.45372,0 -10.34685,1.16432 -14.67403,3.49436 -4.32752,2.26399 -7.75819,5.5955 -10.28724,9.98803 -2.53074,4.39541 -3.79431,9.72096 -3.7946,15.96905 -0.0664,6.31538 1.16345,11.60849 3.69538,15.87293 2.52971,4.26047 5.96075,7.4941 10.2888,9.6914 h 0.003 c 4.32631,2.12989 9.15032,3.19309 14.47043,3.19309 h 0.10181 v -0.009 c 5.47034,-0.0131 10.13521,-1.00065 13.97434,-2.98638 3.86035,-1.99671 6.89301,-4.62746 9.09196,-7.89254 v -0.002 c 2.04359,-3.09637 3.45421,-6.51102 4.23024,-10.2402 l 1.4738,0.71831 c -0.8124,4.41718 -0.96713,7.72256 -3.35999,11.34814 -2.41263,3.58237 -5.73794,6.47 -9.98286,8.66562 -4.24051,2.19333 -9.39938,3.29334 -15.48019,3.29334 -5.85933,0 -11.1651,-1.1721 -15.92205,-3.514 -4.75538,-2.41426 -8.5199,-5.9591 -11.30059,-10.64224 -2.77815,-4.67917 -4.1339,-10.49704 -4.06074,-17.45733 0,-6.88697 1.39247,-12.74124 4.17184,-17.56844 2.78096,-4.83006 6.54598,-8.48516 11.30112,-10.97246 h 0.003 c 4.75541,-2.56062 10.13216,-3.84126 16.13649,-3.84162 z m -0.24444,9.27127 c -4.25752,0 -8.07763,0.90904 -11.45665,2.72852 v -0.002 c -3.38005,1.76802 -6.06015,4.37081 -8.03518,7.80108 -1.97639,3.43263 -2.96283,7.59165 -2.96312,12.46849 -0.0518,4.92958 0.90897,9.06374 2.88665,12.39459 1.9753,3.32686 4.65532,5.85055 8.03516,7.56646 l 0.003,0.002 c 3.37817,1.6631 7.14544,2.4939 11.29853,2.4939 h 0.0997 v -0.01 c 4.26056,-0.0129 7.89728,-0.78172 10.8908,-2.33009 3.01427,-1.55908 5.38385,-3.61573 7.10139,-6.16604 0.83085,-1.25885 1.52448,-2.58674 2.08669,-3.98012 h -0.22219 c -0.54936,1.3538 -1.22476,2.64447 -2.03296,3.86902 h 0.003 c -1.69778,2.52095 -4.03892,4.55359 -7.02747,6.09937 -2.98407,1.54348 -6.61559,2.31665 -10.89855,2.31665 -4.12642,0 -7.86167,-0.82397 -11.21069,-2.47271 -3.34732,-1.69942 -5.99549,-4.19319 -7.95301,-7.48999 -1.95508,-3.29283 -2.90925,-7.38879 -2.85771,-12.29124 0,-4.85079 0.97954,-8.97173 2.93574,-12.36927 1.95781,-3.4004 4.60793,-5.97379 7.95507,-7.72459 3.34798,-1.80277 7.13375,-2.70468 11.36261,-2.70475 v 0 c 4.17941,6e-5 7.73313,0.74824 10.66548,2.24017 2.93609,1.49378 5.22542,3.49885 6.87142,6.01928 v 0.002 c 0.78385,1.16389 1.43576,2.38472 1.96424,3.65921 h 0.22273 c -0.54211,-1.314 -1.21389,-2.57175 -2.02108,-3.77032 -1.66584,-2.55082 -3.98213,-4.58044 -6.94531,-6.088 -2.96661,-1.50936 -6.5545,-2.26188 -10.75801,-2.26188 z m 0.24444,3.07992 c -6.11102,0 -10.76864,1.66013 -13.94748,4.98677 -3.17754,3.32534 -4.76147,8.01742 -4.76147,14.05444 0,6.47552 1.50932,11.4923 4.53874,15.03888 v 0.002 c 3.10518,3.54879 7.80206,5.31853 14.06065,5.31853 2.13913,0 4.38756,-0.33144 6.74428,-0.99425 2.36421,-0.66493 4.43378,-1.84781 6.20686,-3.54707 1.35406,-1.2999 2.32368,-2.96254 2.92127,-4.97231 h -0.19585 c -0.59325,1.95547 -1.54728,3.56467 -2.8634,4.82813 -1.75019,1.67695 -3.78962,2.84169 -6.12312,3.49798 -2.34156,0.65855 -4.57107,0.98806 -6.68951,0.98806 -6.22094,0 -10.84916,-1.75341 -13.91028,-5.25188 -2.98908,-3.50057 -4.49019,-8.46493 -4.49017,-14.90814 0,-6.00206 1.57157,-10.63447 4.7072,-13.91594 3.13436,-3.28009 7.72764,-4.92364 13.80228,-4.92373 v 0 c 2.04568,4e-5 4.20344,0.29152 6.47198,0.87695 2.33378,0.58346 4.37314,1.67682 6.12312,3.28093 h 0.003 c 1.29577,1.13384 2.23102,2.69258 2.80551,4.68086 h 0.19534 c -0.57954,-2.04212 -1.53125,-3.65821 -2.86856,-4.82917 -1.77371,-1.62587 -3.84518,-2.73482 -6.20945,-3.3259 -2.2828,-0.58911 -4.45614,-0.88521 -6.52102,-0.88521 z m -0.0801,1.88515 c -5.52389,0 -9.73492,1.49943 -12.60957,4.50774 -2.87334,3.007 -4.3067,7.24822 -4.3067,12.70517 0,5.853 1.36422,10.3906 4.10361,13.59762 h 0.003 v 0.002 c 2.80807,3.20923 7.05358,4.81004 12.71084,4.81004 1.934,0 3.96746,-0.30105 6.09783,-0.90021 2.13781,-0.60126 4.00976,-1.67049 5.61308,-3.20703 v -0.002 c 0.99576,-0.9559 1.76049,-2.12988 2.30272,-3.51142 h -0.20259 c -0.53366,1.32584 -1.27833,2.4489 -2.23655,3.36879 -1.58067,1.51484 -3.42175,2.56776 -5.52937,3.16053 -2.11521,0.59488 -4.12975,0.89039 -6.04305,0.89039 -5.61962,0 -9.79641,-1.58292 -12.56046,-4.74183 -2.69952,-3.16106 -4.05506,-7.64569 -4.05506,-13.46688 0,-5.42199 1.41896,-9.60355 4.2504,-12.56667 2.8298,-2.96137 6.97582,-4.44681 12.46227,-4.44728 h 0.003 c 1.847,2.5e-4 3.79457,0.2646 5.84306,0.79323 h 0.003 c 2.10746,0.52688 3.94714,1.51206 5.52733,2.96055 l 0.003,0.002 c 0.93633,0.81938 1.66388,1.88651 2.18384,3.20033 h 0.20363 c -0.52787,-1.37237 -1.27614,-2.49262 -2.25362,-3.34864 -1.60348,-1.46983 -3.47805,-2.47297 -5.61517,-3.00757 h -0.003 c -2.06279,-0.53216 -4.02801,-0.79892 -5.89423,-0.79892 z m -0.0765,1.86914 c -4.94093,0 -8.71093,1.34265 -11.28355,4.0349 -2.57135,2.69094 -3.85352,6.48625 -3.85352,11.36726 0,5.23492 1.22068,9.29423 3.67212,12.16412 h 0.003 v 0.002 c 2.51312,2.8721 6.3132,4.30464 11.37346,4.30464 1.73029,0 3.54938,-0.26866 5.45496,-0.8046 1.91305,-0.53805 3.58868,-1.49614 5.02346,-2.87114 0.61953,-0.59473 1.13848,-1.28452 1.56065,-2.06448 h -0.014 v -0.39945 c -0.44204,0.88862 -1.00402,1.66236 -1.68826,2.31923 -1.41213,1.3533 -3.05639,2.2925 -4.93924,2.82205 -1.89045,0.53168 -3.69057,0.79737 -5.40017,0.79737 -5.02261,0 -8.75401,-1.41465 -11.2231,-4.23643 -2.41154,-2.82393 -3.62304,-6.83026 -3.62304,-12.03338 0,-4.84605 1.26772,-8.58325 3.79719,-11.23032 2.5282,-2.64578 6.23409,-3.97288 11.13885,-3.97288 1.65114,0 3.39077,0.23631 5.22243,0.709 h 0.003 c 1.88273,0.47069 3.52759,1.35238 4.93922,2.64635 v 0.002 c 0.73493,0.64307 1.32567,1.45722 1.77353,2.44119 v -0.44442 c -0.43106,-0.8479 -0.97571,-1.56619 -1.63968,-2.14715 -1.43507,-1.31513 -3.11084,-2.21315 -5.02346,-2.69131 -1.84576,-0.47633 -3.60288,-0.71469 -5.27306,-0.71469 z m -0.0884,2.01332 c -4.31308,0 -7.60423,1.17194 -9.8516,3.52381 -2.24613,2.35057 -3.36724,5.66679 -3.36724,9.92756 0,4.56931 1.06574,8.11423 3.20704,10.62106 l 0.003,0.002 c 2.19544,2.50903 5.51434,3.75946 9.93169,3.75946 1.51096,0 3.09999,-0.23494 4.76354,-0.7028 1.67097,-0.46998 3.13563,-1.30682 4.38888,-2.50786 1.29262,-1.24091 2.08756,-2.95113 2.41019,-5.09581 h 0.53949 v -0.19896 h -0.69916 l -0.014,0.0858 c -0.30808,2.15678 -1.09897,3.83976 -2.37453,5.06428 -1.23063,1.17934 -2.66438,1.99936 -4.30516,2.46084 -1.64841,0.4636 -3.21847,0.6935 -4.70874,0.6935 -4.3797,0 -7.62992,-1.23253 -9.78133,-3.69125 -2.1014,-2.46087 -3.15793,-5.95282 -3.15793,-10.49032 0,-4.22582 1.10619,-7.48236 3.31038,-9.78907 2.203,-2.3054 5.42997,-3.46077 9.70691,-3.46076 1.43936,0 2.95759,0.20484 4.55474,0.61701 1.64071,0.41018 3.0746,1.17721 4.30467,2.30477 v 0.002 h 0.003 c 1.22023,1.06766 1.9868,2.67246 2.29496,4.82967 l 0.0119,0.0863 h 0.85471 v -0.20153 h -0.69556 c -0.32181,-2.13998 -1.09003,-3.77407 -2.33371,-4.86327 -1.25335,-1.14891 -2.71848,-1.93338 -4.38888,-2.35128 h -0.003 c -1.61052,-0.41547 -3.14606,-0.62528 -4.60386,-0.62528 z m 23.90397,5.5547 h 2.88097 c 0.0398,0.2031 0.0786,0.40641 0.11419,0.61133 h -2.86184 c -0.0421,-0.20483 -0.0864,-0.40858 -0.13332,-0.61133 z m 0.40463,15.53755 h 2.88922 c -0.0345,0.18709 -0.072,0.37257 -0.10956,0.5581 h -2.90267 c 0.043,-0.18503 0.0836,-0.37129 0.12301,-0.5581 z" />
      <path
         d="m -378.62374,165.79456 h 21.4217 v 6.79054 h -29.68235 v -39.41312 h 28.98231 v 7.21057 h -20.72166 v 8.8207 h 15.68125 v 6.86054 h -15.68125 z"
         style="font-style:normal;font-variant:normal;font-weight:bold;font-stretch:normal;font-size:10.5833px;line-height:1.25;font-family:'Darker Grotesque ExtraBold';-inkscape-font-specification:'Darker Grotesque ExtraBold, Bold';letter-spacing:-0.329993px;white-space:pre;fill:#000000;fill-opacity:1;stroke:none;stroke-width:6.61472"
         id="path841-2" />
      <path
         d="m -337.10441,173.28515 q -5.60042,0 -10.15082,-2.24018 -4.55033,-2.31018 -7.21057,-6.79053 -2.66017,-4.48035 -2.59019,-11.13088 0,-6.58052 2.66024,-11.20089 2.66018,-4.62036 7.21057,-7.00055 4.55033,-2.45019 10.29078,-2.45019 5.67047,0 9.6608,2.03016 3.99026,2.03016 6.23046,5.46043 2.31019,3.43027 3.01023,7.5606 h -8.75068 q -0.42003,-2.94023 -2.10017,-4.41035 -1.68014,-1.54012 -3.92028,-2.10016 -2.17022,-0.56007 -4.13036,-0.56007 -5.81043,0 -8.82066,3.15025 -3.01029,3.15025 -3.01029,8.8907 0,6.16049 2.87026,9.52075 2.94024,3.36027 8.89071,3.36027 2.03012,0 4.27033,-0.63005 2.24014,-0.63006 3.92028,-2.24018 1.75018,-1.68013 2.17022,-4.62036 h 8.82066 q -0.77002,4.27033 -3.08021,7.77061 -2.31019,3.43027 -6.3705,5.53044 -4.06038,2.10016 -9.87081,2.10016 z"
         style="font-style:normal;font-variant:normal;font-weight:bold;font-stretch:normal;font-size:10.5833px;line-height:1.25;font-family:'Darker Grotesque ExtraBold';-inkscape-font-specification:'Darker Grotesque ExtraBold, Bold';letter-spacing:-0.329993px;white-space:pre;fill:#000000;fill-opacity:1;stroke:none;stroke-width:6.61472"
         id="path843-3" />
      <path
         d="m -258.33785,173.56517 q -9.66073,0 -14.77119,-5.53043 -5.1104,-5.60045 -5.1104,-15.05119 0,-6.23049 2.17022,-10.78085 2.24014,-4.62037 6.6505,-7.14057 4.41037,-2.5902 11.06087,-2.5902 9.73078,0 14.77119,5.60044 5.04035,5.53044 5.04035,14.91118 0,6.09048 -2.24014,10.78085 -2.24021,4.62037 -6.6505,7.21057 -4.41037,2.5902 -10.9209,2.5902 z m -0.0701,-8.19064 q 3.8503,0 6.44049,-1.61013 2.59019,-1.68013 3.85029,-4.48035 1.26011,-2.80022 1.26011,-6.3005 0,-3.50028 -1.26011,-6.3705 -1.2601,-2.87023 -3.85029,-4.55036 -2.59019,-1.68014 -6.44049,-1.68014 -5.67046,0 -8.6107,3.57028 -2.94025,3.50028 -2.94025,9.03072 0,3.43027 1.26011,6.23049 1.2601,2.80022 3.78031,4.48036 2.59019,1.68013 6.51053,1.68013 z"
         style="font-style:normal;font-variant:normal;font-weight:bold;font-stretch:normal;font-size:10.5833px;line-height:1.25;font-family:'Darker Grotesque ExtraBold';-inkscape-font-specification:'Darker Grotesque ExtraBold, Bold';letter-spacing:-0.329993px;white-space:pre;fill:#000000;fill-opacity:1;stroke:none;stroke-width:6.61472"
         id="path847-8" />
      <path
         d="m -297.68525,173.28515 q -5.60042,0 -10.15081,-2.24018 -4.55033,-2.31018 -7.21057,-6.79053 -2.66018,-4.48035 -2.59019,-11.13088 0,-6.58052 2.66017,-11.20089 2.66024,-4.62036 7.21057,-7.00055 4.5504,-2.45019 10.29085,-2.45019 5.67046,0 9.66072,2.03016 3.99033,2.03016 6.23054,5.46043 2.31019,3.43027 3.01022,7.5606 h -8.75067 q -0.42004,-2.94023 -2.10017,-4.41035 -1.68014,-1.54012 -3.92035,-2.10016 -2.17015,-0.56007 -4.13029,-0.56007 -5.81044,0 -8.82073,3.15025 -3.01022,3.15025 -3.01022,8.8907 0,6.16049 2.87025,9.52075 2.94025,3.36027 8.89071,3.36027 2.03013,0 4.27033,-0.63005 2.24014,-0.63006 3.92028,-2.24018 1.75012,-1.68013 2.17016,-4.62036 h 8.82072 q -0.77008,4.27033 -3.08021,7.77061 -2.31019,3.43027 -6.37057,5.53044 -4.06031,2.10016 -9.87074,2.10016 z"
         style="font-style:normal;font-variant:normal;font-weight:bold;font-stretch:normal;font-size:10.5833px;line-height:1.25;font-family:'Darker Grotesque ExtraBold';-inkscape-font-specification:'Darker Grotesque ExtraBold, Bold';letter-spacing:-0.329993px;white-space:pre;fill:#000000;fill-opacity:1;stroke:none;stroke-width:6.61472"
         id="path845-7" />
    </g>
  </g>
</svg>
